<svg id="BTV_logo" data-name="BTV logo" xmlns="http://www.w3.org/2000/svg" viewBox="0 0 1000 1000"><defs><style>.cls-1{fill:none;}.cls-2{fill:#0081ff;}</style></defs><title>Artboard 1 copy 3</title><rect class="cls-1" width="1000" height="1000"/><path d="M742.6,441.15H730.16l-7.88-13.64,7.88-13.64h22a27.41,27.41,0,0,0-49.64,4.56H682.71l-9.12-9.12H549.76c52-14.23,75.5-59.05,81-71.17a7,7,0,0,0-.11-6.05c-6.55-13.15-36.7-65-103.2-62a44.89,44.89,0,0,1,12.74-25.7l7.42-7.43S530.33,210.36,500,210.36,452.39,237,452.39,237l7.42,7.43A44.89,44.89,0,0,1,473,276.19v2.23c-10,1-20.6,1.67-29.87,1.67a96.87,96.87,0,0,1-26-3.18c-10.16-2.9-25.17-10.64-25.17-29,0-11.65,9.15-19.08,18.15-19.08,2.69,0,5.72.57,7.41,2.83a9.19,9.19,0,0,0-5.45,17,10.27,10.27,0,0,0,7.56.72c5.45-1.48,8.13-6.89,8-12.22A18.7,18.7,0,0,0,417,220.86c-5.62-2.73-12.53-2.34-18.32-.38a30.14,30.14,0,0,0-15.4,11.91c-8,12.11-6.07,29.14,1.64,40.92,8.26,12.62,22.56,19.22,36.93,22.11,1.87.38,3.76.7,5.65,1a239.12,239.12,0,0,0,39.09,2.09c0,.24,0,.48,0,.72a14.11,14.11,0,0,0,4.87,10.69,4,4,0,0,1,0,6.15,14.16,14.16,0,0,0,0,21.37,4.05,4.05,0,0,1,0,6.16,14.16,14.16,0,0,0,0,21.37,4.05,4.05,0,0,1,0,6.16,14.16,14.16,0,0,0,0,21.37,4,4,0,0,1,0,6.16,14.16,14.16,0,0,0-4.86,10.67H379.06l-9.12,9.12H351.7v-9.21l-9.12-9.12H315.13v9.21H296.88v9.12h18.25v18.24H296.88v9.12h18.25v9.13h27.53l9-9v-9.21h18.24l9.12,9.12H473v104c-46.93-19.33-90.24-48.77-141.16-52-12.33-.78-17.65-.61-28.16.91-9.95,1.44-19.51,4.41-28.08,9.75a58.91,58.91,0,0,0-19.8,20.12,58,58,0,0,0-7.91,28.73,44.69,44.69,0,0,0,6,23.08,41.16,41.16,0,0,0,37.09,20,26.34,26.34,0,0,0,21.25-12.73c4.54-7.72,5.31-18.76-1.72-25.28-5.62-5.22-15.89-6.13-20,1.47-3.64,6.77,1.63,15.15,9.21,15.15a10.48,10.48,0,0,0,6.07-2c-.92,4.55-6.23,10.2-14.88,10.2-13.65,0-25.31-10.77-25.31-27.25a41.1,41.1,0,0,1,11.77-28c7.66-7.65,18.09-11.86,28.72-13.19,16.12-2,31.48,2.12,34,2.65C392,534.23,423.46,574.46,473,597.76V623.6h0v26.34a390.77,390.77,0,0,0,11.46,94c6,24.12,12.57,40.11,14.79,45.18a.85.85,0,0,0,1.56,0c2.22-5.08,8.78-21.07,14.79-45.2a390.79,390.79,0,0,0,11.46-94V621.55h0v-7.73a156.12,156.12,0,0,0,18.34,1.08c91.94,0,130.69-86.71,137.44-103.8a5.37,5.37,0,0,0-.81-5.34,297.72,297.72,0,0,0-66.66-60h58.25l9.12-9.12h19.82a27.41,27.41,0,0,0,49.61,4.48H742.6ZM527,292.47c25.87-1.59,48.33,3.43,48.33,33.73,0,30.68-21.44,60.25-48.33,76Zm73.51,214.35c0,36.26-20.37,59.8-61.14,59.8a100.58,100.58,0,0,1-12.37-.81v-120h35.58C584.31,462.76,600.54,484.53,600.54,506.82Z"/><path class="cls-2" d="M500,443.33H482.09V553.4c6.06,2.34,12,4.46,17.91,6.29Z"/><path class="cls-2" d="M482.09,649.94a378.88,378.88,0,0,0,14.85,105.37,1.56,1.56,0,0,0,3.06-.43V608.2a186.25,186.25,0,0,1-17.91-6.4Z"/><path class="cls-2" d="M670,509.78H611.79a2.29,2.29,0,0,0-2.27,2.19c-2,40-27.91,63.65-70.12,63.65-30.65,0-63.27-13.76-98.77-30.57a1.11,1.11,0,0,0-1.25,1.79c13.37,13.78,60,58.94,106,58.94,39.25,0,72.92-16.68,100.09-49.57A191.63,191.63,0,0,0,672.12,513,2.27,2.27,0,0,0,670,509.78Z"/><path class="cls-2" d="M554.53,398.35c16.71-5.84,31.67-15.75,44.71-29.67a135.41,135.41,0,0,0,21.26-30.3,2.26,2.26,0,0,0-2-3.29H585.92a2.27,2.27,0,0,0-2.24,2c-2.77,19.21-12.73,38.55-28.25,54.4-1,1.06-2.11,2.11-3.19,3.12A2.26,2.26,0,0,0,554.53,398.35Z"/></svg>